<?xml version="1.0" encoding="utf-8"?>
<!-- Generator: Adobe Illustrator 17.0.0, SVG Export Plug-In . SVG Version: 6.00 Build 0)  -->
<!DOCTYPE svg PUBLIC "-//W3C//DTD SVG 1.1//EN" "http://www.w3.org/Graphics/SVG/1.1/DTD/svg11.dtd">
<svg version="1.1" id="Calque_1" xmlns="http://www.w3.org/2000/svg" xmlns:xlink="http://www.w3.org/1999/xlink" x="0px" y="0px"
	 width="467.213px" height="367.832px" viewBox="0 0 467.213 367.832" enable-background="new 0 0 467.213 367.832"
	 xml:space="preserve">
<g id="lItITQ_1_">
	<g>
		<path d="M199.585,181.464c18.48,9.648,37.072,10.616,56.265,4.318c1.33-0.437,3.502-0.47,4.401,0.317
			c3.947,3.453,8.575,6.69,11.13,11.071c8.929,15.308,13.169,31.766,9.729,49.68c-2.03,10.573-2.951,21.403-5.605,31.802
			c-3.774,14.787-10.765,28.432-21.36,39.369c-13.644,14.086-34.328,13.146-48.195-0.404c-9.595-9.375-15.24-21.246-20.497-33.291
			c-6.946-15.916-10.504-32.519-9.587-49.978c0.879-16.743,5.826-31.934,16.816-44.87
			C195.03,186.712,197.415,183.98,199.585,181.464z M279.334,241.855c-33.925,6.506-66.925,5.523-100.385,2.048
			c0.351,2.57,0.821,4.191,0.746,5.786c-0.265,5.639,2.579,7.496,7.886,7.537c10.741,0.083,21.523,0.038,32.209,0.961
			c17.85,1.543,35.477-0.151,53.104-2.409c1.587-0.203,4.014-1.172,4.369-2.31C278.354,249.968,278.629,246.213,279.334,241.855z
			 M272.876,208.287c-1.3-8.734-3.784-11.486-9.706-11.139c-5.643,0.33-11.27,1.02-16.916,1.228
			c-14.927,0.55-29.858,1.073-44.792,1.267c-3.879,0.05-7.773-1.149-10.914-1.654c-1.786,3.074-3.196,5.634-4.734,8.114
			c-1.606,2.59-1.589,4.355,1.977,4.776c2.973,0.351,5.944,1.16,8.904,1.11c20.738-0.352,41.477-0.753,62.205-1.436
			C263.587,210.397,268.236,209.07,272.876,208.287z M186.397,274.886c2.43,7.708,4.139,9.524,9.647,10.015
			c8.09,0.722,16.195,1.663,24.3,1.735c12.616,0.111,25.238-0.394,37.856-0.707c11.902-0.296,11.904-0.334,15.726-11.359
			c0.091-0.262-0.07-0.611-0.269-2.01C244.937,278.368,216.005,279.476,186.397,274.886z M263.345,299.35
			c-22.464,0-43.951,0-65.438,0c-0.227,0.381-0.454,0.762-0.682,1.143c1.64,1.319,3.107,3.379,4.954,3.809
			c4.309,1.004,8.789,1.548,13.219,1.701c12.772,0.441,25.554,0.757,38.332,0.77C257.713,306.777,261,304.676,263.345,299.35z
			 M188.019,239.201c0.555,0.06,1.111,0.121,1.666,0.181c0.701-7.789,1.402-15.577,2.103-23.366
			c-0.618-0.064-1.237-0.128-1.855-0.192C189.295,223.616,188.657,231.408,188.019,239.201z M203.806,239.353
			c0.571,0.065,1.142,0.129,1.714,0.194c0.862-7.313,1.723-14.627,2.585-21.94c-0.603-0.068-1.205-0.137-1.808-0.205
			C205.466,224.718,204.636,232.035,203.806,239.353z M224.19,217.331c-0.555-0.061-1.11-0.122-1.665-0.183
			c-0.862,7.696-1.724,15.392-2.587,23.088c0.573,0.063,1.145,0.127,1.718,0.19C222.501,232.727,223.345,225.029,224.19,217.331z
			 M196.096,239.257c0.543,0.047,1.085,0.095,1.628,0.142c0.653-7.23,1.305-14.461,1.958-21.691
			c-0.588-0.051-1.177-0.103-1.765-0.154C197.31,224.788,196.703,232.023,196.096,239.257z M211.651,240.243
			c0.645,0.049,1.291,0.098,1.936,0.148c0.535-7.512,1.07-15.024,1.605-22.536c-0.514-0.039-1.027-0.078-1.541-0.117
			C212.985,225.239,212.318,232.741,211.651,240.243z M185.025,214.72c-0.514-0.056-1.027-0.112-1.541-0.169
			c-0.854,7.872-1.708,15.745-2.562,23.617c0.457,0.051,0.914,0.103,1.37,0.154C183.203,230.455,184.114,222.587,185.025,214.72z"/>
		<path d="M265.67,147.841c5.948-1.201,11.48-2.318,17.013-3.435c-0.018-0.553-0.037-1.105-0.055-1.658
			c-3.396-1.705-6.868-3.281-10.136-5.202c-0.859-0.505-1.459-2.085-1.445-3.161c0.007-0.501,1.716-1.257,2.733-1.429
			c23.22-3.922,46.447-7.803,69.684-11.62c2.779-0.457,5.761-1.15,8.41-0.595c4.19,0.877,5.715-0.607,6.487-4.456
			c0.613-3.055,1.922-5.97,3.221-9.839c-30.229,8.118-60.036,16.123-90.408,24.28c0.45-1.147,0.572-2.303,1.002-2.431
			c21.856-6.529,43.746-12.945,65.613-19.439c4.766-1.416,9.507-2.947,14.175-4.654c15.651-5.721,31.643-7.886,48.362-6.632
			c9.794,0.734,19.508,0.958,28.932,4.133c9.448,3.183,17.53,8.232,24.046,15.86c3.912,4.58,3.353,9.205,0.211,13.514
			c-7.619,10.45-15.398,21.268-27.603,26.448c-8.521,3.617-18.129,4.644-27.201,7.018c-1.869,0.489-3.908,1.455-5.203,2.828
			c-7.126,7.552-16.191,11.182-25.906,14.016c-16.179,4.719-32.654,5.551-48.604,0.956c-9.881-2.847-19.05-8.716-27.983-14.143
			c-8.121-4.934-13.353-13.95-23.081-16.954C266.818,150.9,266.253,148.768,265.67,147.841z M317.847,132.868
			c4.771,3.302,8.859,7.32,15.433,7.814c7.194,0.541,14.26,2.767,21.39,4.22c0.714,0.146,1.484,0.019,2.126,0.019
			c0-5.259-0.132-10.183,0.048-15.095c0.114-3.109-0.67-4.878-4.162-4.315c-10.644,1.715-21.3,3.363-31.923,5.2
			c-1.045,0.181-1.895,1.482-2.838,2.26c-1.256-0.727-2.603-2.201-3.753-2.061c-8.012,0.975-15.983,2.285-23.967,3.487
			c-0.011,0.342-0.022,0.684-0.033,1.026c9.33,1.159,18.659,2.317,27.68,3.438C317.847,136.555,317.847,134.711,317.847,132.868z
			 M303.606,159.857c1.578,4.517,2.656,8.131,4.123,11.58c0.731,1.717,1.834,3.836,3.352,4.572
			c13.933,6.754,28.462,6.481,43.141,2.988c1.409-0.335,2.642-1.414,4.407-2.399c-3.971-4.159-6.774-8.759-10.866-10.945
			c-4.731-2.527-10.532-3.521-15.984-4.119C322.759,160.545,313.645,160.407,303.606,159.857z M282.196,146.683
			c-0.048,0.848-0.097,1.697-0.145,2.545c8.657,2.028,17.219,5.004,25.991,5.883c17.247,1.727,34.611,2.289,52.258,3.353
			c0.729-3.83-1.033-7.086-5.633-8.496c-9.044-2.771-18.385-3.231-27.573-1.539c-12.232,2.253-24.077,1.059-35.999-1.752
			C288.286,146.014,285.171,146.646,282.196,146.683z M447.401,132.235c-0.276-0.703-0.553-1.405-0.829-2.108
			c-6.765-0.974-13.52-2.043-20.31-2.794c-0.797-0.088-2.237,1.415-2.613,2.457c-2.119,5.872-6.071,10.059-11.257,13.321
			c-1.107,0.696-1.838,1.99-2.821,3.098c4.569,1.854,8.474,3.701,12.559,4.969c1.686,0.523,4.403,0.536,5.547-0.472
			C434.432,144.754,440.862,138.432,447.401,132.235z M382.953,138.933c3.047,0.707,5.94,0.93,8.437,2.042
			c7.634,3.398,14.427,3.403,20.175-3.572c2.816-3.417,5.832-6.67,8.757-9.997c-0.372-0.607-0.743-1.214-1.115-1.821
			c-6.861,0.373-13.722,0.756-20.584,1.118C387.206,127.304,387.206,127.299,382.953,138.933z M362.35,119.474
			c19.734,4.712,38.932,1.454,58.246,1.043c-4.656-4.37-8.942-8.544-13.469-12.438c-0.542-0.466-2.504,0.391-3.619,0.989
			c-2.119,1.136-3.99,2.77-6.16,3.772c-10.743,4.964-22.098,2.398-33.567,2.724C363.386,116.644,362.882,118.022,362.35,119.474z
			 M379.349,142.783c-0.718,1.382-1.221,2.227-1.612,3.122c-2.632,6.024-2.471,6.307,3.61,8.378
			c2.973,1.012,5.889,2.196,8.823,3.322c8.806,3.38,16.549,0.013,24.336-3.083c0.057-0.558,0.114-1.116,0.171-1.674
			C403.028,149.528,391.378,146.21,379.349,142.783z M402.505,103.352c-2.706-0.306-4.292-0.725-5.844-0.622
			c-8.602,0.568-17.188,1.388-25.795,1.844c-2.991,0.158-5.4,1.407-4.962,4.092c0.248,1.522,3.368,3.581,5.252,3.643
			c5.765,0.19,11.665,0.096,17.308-0.97C393.306,110.425,398.5,109.152,402.505,103.352z M361.036,135.828
			c5.368,0.421,10.457,0.861,15.553,1.201c2.17,0.145,7.032-5.697,5.909-7.809c-0.883-1.661-3.699-2.668-5.846-3.192
			c-3.102-0.757-6.382-0.76-9.571-1.193c-1.878-0.254-3.728-0.716-6.045-1.175C361.036,127.935,361.036,131.534,361.036,135.828z
			 M332.99,143.633c-17.088-1.699-34.175-3.397-51.049-5.075C294.396,146.548,315.313,148.95,332.99,143.633z M390.804,162.46
			c-9.194-3.191-17.604-6.11-26.636-9.244c0.457,5.451,1.375,9.044,6.997,9.676c2.872,0.323,6.002,1.407,8.305,3.108
			C384.396,169.637,387.206,167.217,390.804,162.46z M425.229,116.506c1.262,1.966,2.024,4.658,3.366,4.988
			c6.913,1.702,13.975,2.797,21.45,4.191C445.417,115.251,436.34,111.962,425.229,116.506z M301.308,170.697
			c0.565-0.429,1.13-0.858,1.695-1.287c-1.926-3.621-2.961-8.938-5.962-10.517c-6.568-3.455-14.134-5.014-21.293-7.347
			c-0.1,0.262-0.2,0.525-0.3,0.787C284.068,158.454,292.688,164.576,301.308,170.697z M410.372,103.874
			c7.918,10.292,10.421,10.969,23.184,6.595C429.402,106.697,419.022,103.681,410.372,103.874z M361.941,139.328
			c-0.348,8.598-0.348,8.598,10.589,11.172c0.75-3.079,1.5-6.159,2.422-9.944C370.328,140.119,366.325,139.742,361.941,139.328z
			 M365.908,176.213c-1.189-3.506-1.667-6.998-3.449-9.595c-1.871-2.728-5.236-3.27-8.928-2.344
			C360.815,175.425,362.068,176.639,365.908,176.213z M369.491,167.532c-0.401,0.327-0.803,0.654-1.204,0.982
			c1.022,1.973,1.705,5.217,3.152,5.604c1.908,0.51,4.416-1.222,6.666-1.99c-0.068-0.495-0.136-0.989-0.203-1.484
			C375.098,169.607,372.294,168.57,369.491,167.532z"/>
		<path d="M187.148,137.631c-1.16,0.885-2.319,1.77-4.486,3.423c4.698,2.885,8.997,5.439,13.192,8.155
			c1.138,0.737,1.961,1.96,2.929,2.96c-1.387,0.532-2.784,1.544-4.159,1.515c-7.626-0.163-14.526,1.686-20.257,6.876
			c-10.25,9.281-23.104,11.829-36.065,14.045c-8.326,1.423-16.713,3.697-25.045,3.584c-12.08-0.164-24.679,2.416-36.134-3.526
			c-3.505-1.818-6.248-5.075-9.427-7.562c-1.978-1.548-3.926-3.52-6.218-4.221c-14.298-4.374-27.569-10.583-38.082-21.464
			c-4.418-4.573-8.359-9.712-11.883-15.015c-3.716-5.594,0.091-15.619,6.105-20.469C29.409,96.423,43.145,94.773,57.441,95
			c25.586,0.407,50.502,4.965,74.981,12.277c16.512,4.932,33.145,9.458,49.629,14.478c3.305,1.007,7.496,2.067,7.718,6.677
			c-8.746-3.181-17.24-6.725-26.011-9.334c-8.863-2.636-18.037-4.207-27.001-6.528c-3.825-0.99-5.099,0.675-5.751,3.943
			c-0.453,2.268-1.161,4.486-1.942,7.429c6.92,1.122,13.743,2.293,20.587,3.324c13.284,2.002,26.588,3.875,39.858,5.967
			c1.175,0.185,2.159,1.582,3.98,2.998c-2.983,0.705-4.735,1.119-6.493,1.539c-1.176-0.443-2.411-1.402-3.504-1.261
			c-11.668,1.5-23.317,3.149-34.963,4.815c-4.264,0.61-8.505,1.375-12.757,2.069c0.029,0.469,0.058,0.938,0.086,1.407
			c6.348,0,12.701-0.166,19.042,0.041c8.3,0.272,16.493,0.93,23.825-4.528C180.958,138.648,184.308,138.482,187.148,137.631z
			 M93.516,172.95c1.041,0.423,1.61,0.761,2.222,0.88c1.134,0.219,2.289,0.379,3.441,0.443c16.889,0.941,33.378-1.31,49.613-5.966
			c7.249-2.079,11.407-8.11,10.416-16.594c-1.881,0.187-3.83,0.221-5.71,0.599c-5.35,1.077-10.647,2.426-16.009,3.431
			c-10.238,1.918-20.549,3.471-30.748,5.57C100.564,162.584,96.206,166.503,93.516,172.95z M84.185,102.027
			c1.566,5.383,3.489,9.526,3.826,13.794c0.396,5.021,3.125,5.792,7.078,6.015c6.451,0.363,12.935,0.558,19.329,1.402
			c10.408,1.374,10.267,1.54,12.966-8.425c0.772-2.851,0.431-4.444-2.564-5.173c-4.967-1.21-9.86-2.8-14.879-3.703
			C101.718,104.459,93.419,103.405,84.185,102.027z M92.42,145.874c2.951-0.395,5.717-0.714,8.464-1.147
			c2.788-0.44,5.651-1.711,8.32-1.366c8.451,1.092,12.339-2.794,13.17-10.739c0.016-0.157,0.137-0.302,0.199-0.456
			c1.399-3.483-0.296-5.131-3.534-5.315c-8.947-0.508-17.906-0.783-26.856-1.236c-3.198-0.162-3.569,1.388-2.996,4.033
			C90.303,134.791,91.254,139.969,92.42,145.874z M152.089,149.399c-25.698-2.113-51.166-2.785-75.477,7.299
			c-2.031,0.842-3.454,3.15-5.159,4.776c0.316,0.469,0.632,0.938,0.948,1.406C98.964,158.387,125.527,153.893,152.089,149.399z
			 M69.007,123.555c-11.339,0.529-21.939,1.023-33.995,1.585c5.966,6.761,10.829,12.546,16.077,17.959
			c0.908,0.937,3.726,0.921,5.174,0.267c4.296-1.94,8.348-4.418,12.744-6.821C69.007,132.566,69.007,128.3,69.007,123.555z
			 M47.642,150.215c-0.013,0.629-0.025,1.258-0.038,1.887c4.613,1.907,9.155,4.027,13.88,5.597c1.488,0.494,3.658-0.101,5.184-0.861
			c5.434-2.708,10.717-5.718,16.079-8.573c0.871-0.464,2.086-0.489,2.726-1.131c0.92-0.924,1.902-2.195,1.989-3.382
			c0.05-0.676-1.546-1.972-2.541-2.135c-3.245-0.531-6.834-1.636-9.785-0.778C65.848,143.537,56.79,147.029,47.642,150.215z
			 M14.535,121.797c-0.332,0.3-0.665,0.601-0.997,0.901c2.008,2.723,3.689,5.784,6.089,8.101
			c5.936,5.732,12.045,11.317,18.476,16.472c1.175,0.942,4.204-0.428,6.378-0.732c-0.481-1.713-0.54-3.73-1.517-5.086
			c-3.769-5.23-7.801-10.273-11.813-15.324c-0.627-0.79-1.582-1.627-2.513-1.817C23.96,123.361,19.24,122.615,14.535,121.797z
			 M170.561,134.707c-0.041-0.564-0.083-1.129-0.124-1.693c-0.633-0.145-1.258-0.362-1.899-0.425
			c-11.236-1.103-22.497-1.995-33.702-3.352c-6.205-0.751-8.083,0.154-9.246,6.196c-0.329,1.711-0.503,3.453-0.898,6.243
			C140.385,139.291,155.473,136.999,170.561,134.707z M40.114,99.586c6.607,7.042,33.493,12.392,40.68,9.06
			c-0.42-6.502-1.573-7.986-7.718-8.568c-4.618-0.437-9.285-0.419-13.932-0.475C53.163,99.531,47.181,99.586,40.114,99.586z
			 M183.781,152.856c0.009-0.383,0.017-0.767,0.026-1.15c-5.853,0.355-11.708,0.682-17.556,1.111
			c-0.512,0.038-1.255,0.652-1.415,1.152c-1.086,3.372-2.044,6.786-3.509,11.768C169.663,160.955,176.722,156.905,183.781,152.856z
			 M86.062,136.925c-0.466-2.543-1.066-4.281-1.05-6.013c0.051-5.307-2.89-6.867-7.5-6.064c-1.226,0.214-3.195,1.569-3.198,2.407
			c-0.011,2.719-0.166,6.864,1.385,7.842C78.304,136.74,82.18,136.371,86.062,136.925z M38.883,103.73
			c-1.185,5.286-2.264,10.102-3.366,15.017c6.267,1.209,11.309,0.229,13.145-7.127C45.674,109.21,42.541,106.681,38.883,103.73z
			 M75.282,167.158c0.102,0.682,0.203,1.364,0.305,2.046c3.408,2.57,7.369,5.42,11.441,2.703c3.598-2.4,6.055-6.509,10.057-11.044
			C88.9,163.226,82.091,165.192,75.282,167.158z M48.957,119.319c5.267,0,9.941,0.108,14.604-0.079
			c1.113-0.045,2.186-1.071,3.277-1.646c-0.767-1.284-1.232-3.237-2.351-3.743C57.457,110.669,53.557,112.033,48.957,119.319z
			 M69.856,120.021c5.107,0.348,9.776,0.665,14.958,1.018c-0.907-3.521-0.004-7.145-4.551-7.221
			C71.825,113.677,70.72,114.295,69.856,120.021z M32.337,110.975c-5.653,3.733-12.619-0.471-16.866,6.039
			C26.953,120.72,29.63,119.763,32.337,110.975z M34.01,100.666c-4.696,2.533-8.567,4.62-12.438,6.708
			C31.932,110.172,33.584,109.303,34.01,100.666z M188.728,148.365c-7.704-6.437-10.143-6.459-16.161,0
			C178.048,148.365,183.2,148.365,188.728,148.365z"/>
		<path d="M191.573,122.349c-0.419-13.445,10.22-25.291,21.277-27.111c17.432-2.869,34.227-3.112,48.764,9.529
			c6.843,5.951,7.543,13.678,7.803,21.662c0.341,10.46-4.896,17.487-14.165,21.908c-8.277,3.948-16.404,8.235-26.109,5.767
			c-5.93-1.508-11.954-2.658-17.863-4.243C198.177,146.347,191.813,133.752,191.573,122.349z M224.525,101.437
			c-0.396-0.002-0.792-0.005-1.188-0.007c0,13.608,0,27.216,0,40.823c0.396,0.005,0.792,0.01,1.188,0.015
			C224.525,128.658,224.525,115.048,224.525,101.437z M231.054,141.484c2.571-6.988,0.725-34.635-1.862-37.201
			C229.826,116.952,230.44,129.218,231.054,141.484z M216.378,105.095c-0.366,0.067-0.732,0.133-1.098,0.2
			c0,11.721,0,23.442,0,35.164c0.366-0.02,0.732-0.039,1.098-0.059C216.378,128.631,216.378,116.863,216.378,105.095z
			 M238.971,109.273c-0.502,0.008-1.003,0.016-1.505,0.024c0,9.887,0,19.775,0,29.662c0.502-0.002,1.003-0.003,1.505-0.005
			C238.971,129.06,238.971,119.167,238.971,109.273z M208.376,110.362c-0.299,0.001-0.597,0.001-0.896,0.002
			c0,8.882,0,17.764,0,26.646c0.299,0.015,0.597,0.03,0.896,0.045C208.376,128.157,208.376,119.26,208.376,110.362z
			 M247.601,116.862c-0.587,0.003-1.174,0.006-1.761,0.008c-0.511,6.336-1.022,12.673-1.533,19.009
			c0.602,0.044,1.204,0.087,1.805,0.131C246.608,129.628,247.105,123.245,247.601,116.862z M201.894,129.985
			c0.246,0.005,0.492,0.011,0.738,0.016c0.297-5.308,0.593-10.617,0.889-15.925c-0.542-0.006-1.085-0.011-1.627-0.017
			C201.894,119.367,201.894,124.676,201.894,129.985z"/>
		<path d="M226.324,163.732c0.386-2.149,0.771-4.298,1.232-6.864c2.04,0.129,3.936,0.249,6.055,0.383c0,2.852,0,5.26,0,7.896
			c4.824-0.732-1.144-9.335,6.084-7.957c0.345,2.542,0.671,4.934,1.048,7.707c3.529-2.446-0.781-9.097,5.618-9.416
			c0.612,1.994,1.166,3.801,1.95,6.354c1.13-3.732,2.004-6.618,2.877-9.503c0.573,0.131,1.145,0.262,1.718,0.393
			c0.391,1.755,0.782,3.51,1.365,6.13c1.991-9.174,1.991-9.174,8.496-11.759c6.112,8.655,2.996,26.129-2.343,32.029
			c-0.352-1.136-0.653-2.106-1.071-3.453c-0.916,2.63-1.741,4.998-2.565,7.366c-0.468-0.054-0.935-0.107-1.403-0.161
			c-0.431-1.199-0.862-2.398-1.32-3.673c-1.198,2.267-2.259,4.272-3.993,7.553c-1.17-2.831-1.673-4.046-2.738-6.622
			c-0.523,2.862-0.792,4.33-1.118,6.113c-1.491,0.266-3.086,0.551-5.005,0.893c-0.15-1.279-0.286-2.432-0.524-4.459
			c-1.885,3.891-3.504,7.122-6.243,1.64c-2.399,3.777-4.305,3.549-6.381,0.181c-2.146,1.012-4.195,1.977-6.739,3.177
			c-0.363-2.867-0.575-4.538-0.786-6.21c-0.249,0.002-0.498,0.004-0.747,0.006c-0.29,1.528-0.58,3.057-0.856,4.513
			c-6.783,0.849-5.596-4.48-7.371-8.212c-0.304,1.786-0.608,3.571-0.91,5.342c-4.001-0.849-4.001-0.849-5.761-7.581
			c-0.156,1.576-0.313,3.151-0.498,5.012c-6.184-1.383-5.925-6.908-7.083-11.166c-1.702-6.255,1.929-15.822,7.733-20.646
			c0,2.93,0,5.321,0,7.713c0.283,0.104,0.566,0.208,0.848,0.312c0.766-1.566,1.532-3.131,2.395-4.893
			c7.344,0.032,2.093,6.189,4.812,9.462c0.611-1.856,0.902-3.328,1.58-4.592c0.431-0.804,1.436-1.301,2.184-1.936
			c0.631,0.778,1.686,1.497,1.806,2.347c0.273,1.928,0.086,3.922,1.161,6.146c0.354-1.503,0.575-3.055,1.107-4.492
			c0.386-1.042,1.183-1.932,1.797-2.89c0.689,0.943,1.751,1.804,1.979,2.847c0.339,1.554,0.088,3.236,0.088,4.863
			C225.31,163.662,225.817,163.697,226.324,163.732z"/>
		<path d="M228.602,90.577c-7.459,1.351-14.879,3.009-22.39,3.942c-4.757,0.591-8.565-1.999-11.297-5.894
			c-3.061-4.365-4.328-8.942-1.299-13.92c2.989-4.912,7.196-6.999,13.061-5.971c5.206,0.913,10.314,2.849,15.53,3.13
			c7.052,0.38,14.166-0.609,21.253-0.606c7.241,0.003,14.764-0.645,21.65,1.063c8.736,2.166,10.401,12.264,3.651,18.414
			c-2.651,2.415-5.87,4.374-9.136,5.875c-1.625,0.747-4.255,0.623-5.89-0.192c-7.915-3.942-16.04-6.276-24.993-4.642
			C228.696,91.376,228.649,90.977,228.602,90.577z M198.535,78.217c3.674,2.773,1.938,4.989-0.52,6.913
			c2.025,1.446,3.645,2.602,4.429,3.162c2.638-1.404,4.685-2.304,6.495-3.547c0.765-0.525,1.691-2.238,1.422-2.618
			c-1.928-2.725-4.145-5.246-6.27-7.832C203.837,78.865,202.989,80.576,198.535,78.217z M228.585,77.944
			c-3.257,1.753-5.756,3.098-7.386,3.976c-2.126-2.918-4.147-5.694-6.168-8.469c-0.452,0.29-0.904,0.579-1.357,0.869
			c4.325,4.103,5.223,8.939,3.054,13.982c2.366-0.869,4.531-2.274,6.744-2.353C228.474,85.767,229.13,83.025,228.585,77.944z
			 M231.995,78.111c0,2.053-0.511,4.862,0.086,5.121c3.14,1.365,6.56,2.085,9.883,3.03c0.278-1.531,0.555-3.062,0.674-3.716
			C238.933,81.002,236.163,79.848,231.995,78.111z M247.249,89.124c0-2.785-0.752-6.198,0.214-9.023
			c0.942-2.752,3.643-4.902,6.042-7.906C243.268,75.648,241.384,82.402,247.249,89.124z"/>
		<path d="M136.393,332.594c-1.118-0.426-1.997-0.762-3.429-1.308c-0.039,5.885,4.041,8.822,7.343,12.217
			c-5.257,1.839-8.375-1.075-12.102-10.587c-0.97,3.671-1.941,7.342-2.911,11.013c-1.631-8.681,0.052-16.526,4.881-23.744
			c0.84-1.256,0.806-3.097,1.176-4.668c-0.609-0.333-1.217-0.667-1.826-1c2.685-1.946,5.37-3.892,8.894-6.446
			c-2.682-1.095-3.907-1.596-5.233-2.138c0.044-0.51-0.101-1.181,0.154-1.415c2.674-2.451,5.222-5.109,8.195-7.141
			c2.203-1.505,2.329-2.421,1.627-5.102c-2.74-10.472-3.059-20.901,4.374-29.952c1.845-2.246,4.103-4.613,8.201-0.596
			c0.662-11.378,1.265-21.744,1.869-32.111c-0.419-0.029-0.839-0.059-1.258-0.088c-0.619,8.92-1.239,17.84-1.861,26.801
			c-6.829-1.039-6.195-0.951-5.265-6.8c1.706-10.726,2.929-21.562,3.67-32.398c0.56-8.19,3.404-15.306,7.586-22.4
			c1.709,0.617,3.223,1.164,4.962,1.791c-4.943,15.714-4.077,31.63-3.757,47.534c0.11,5.444,2.343,11.74-4.309,15.673
			c0.953-0.353,1.906-0.705,3.89-1.439c-1.298,2.758-2.137,4.914-3.278,6.896c-4.097,7.124-5.638,14.77-5.59,22.952
			c0.023,3.96,0.484,8.623-4.739,10.437c-0.283,0.098-0.635,0.376-0.711,0.64c-1.686,5.903-3.418,11.795-4.952,17.738
			c-0.515,1.996,0.772,5.062-3.474,4.012c-0.605-0.15-2.476,2.076-2.605,3.322C135.648,326.853,136.163,329.498,136.393,332.594z
			 M153.105,261.546c-5.163,9.503-7.074,18.957-6.35,28.727C148.783,281.097,150.865,271.68,153.105,261.546z"/>
		<path d="M137.494,82.212c-10.002-7.473-19.756-15.405-33.459-15.582c0.429-1.54,0.828-2.97,1.249-4.478
			c-8.013-2.256-15.348-1.749-22.114,4.941c-0.559-7.528,5.476-8.115,9.212-11.551c-3.246-0.876-5.843-1.578-8.48-2.29
			c2.091-4.051,3.29-4.259,9.284-1.843c3.35,1.351,6.712,2.671,10.117,4.024c0.504-1.169,0.941-2.182,1.413-3.276
			c4.105,3.145,8.035,6.156,12.684,9.718c-0.6-2.859-0.963-4.587-1.326-6.316c0.397-0.242,0.795-0.483,1.192-0.725
			c0.877,0.914,1.979,1.697,2.595,2.762c3.223,5.578,7.516,9.46,13.745,11.934c4.031,1.601,7.139,5.529,11.126,8.796
			c4.654-3.061,9.763-1.667,15.197,0.796c3.641,1.651,7.911,1.881,11.856,2.911c1.313,0.343,2.907,0.921,3.572,1.923
			c0.382,0.575-0.586,2.977-1.389,3.25c-3.933,1.333-7.984,2.9-12.052,3.087c-4.022,0.184-8.101-1.294-12.184-1.822
			c-1.953-0.253-3.972-0.024-5.96,0.04c-2.436,0.079-4.869,0.215-7.304,0.327C136.84,86.442,137.21,84.046,137.494,82.212z
			 M142.054,84.052c0.02,0.502,0.04,1.004,0.06,1.505c8.233,0.831,16.466,1.662,24.698,2.493c0.046-0.518,0.091-1.037,0.137-1.555
			C158.651,85.681,150.353,84.866,142.054,84.052z"/>
		<path d="M129.775,191.85c-1.158,0-2.317,0-3.46,0c4.291,16.631-0.819,24.697-14.558,24.112
			c-3.291,5.087-5.282,11.766-9.468,13.703c-4.965,2.298-4.922,5.742-5.678,9.127c-0.594,2.659,0.494,5.694-0.295,9.152
			c-1.424-1.8-2.848-3.599-4.25-5.371c-1.244-0.108-2.709-0.236-4.173-0.364c0.641-3.368,1.282-6.737,2.071-10.883
			c-0.216-0.136-1.494-0.94-3.39-2.134c3.315-1.323,6.029-2.407,9.574-3.823c-2.075-0.655-3.452-1.09-4.829-1.525
			c-0.082-0.343-0.164-0.687-0.247-1.03c3.619-1.198,7.237-2.397,10.856-3.595c-0.045-0.421-0.091-0.842-0.136-1.263
			c-1.491-0.575-2.982-1.15-5.315-2.05c3.676-1.444,6.911-2.519,9.952-3.996c1.381-0.671,3.214-2.002,3.415-3.262
			c1.554-9.717,7.843-15.182,16.215-18.938c0.052-5.73,3.563-10.933,8.3-11.431c-1.649,4.757-3.207,9.252-4.765,13.747
			C129.594,192.026,129.775,191.85,129.775,191.85z M123.74,199.071c-2.571,4.096-5.462,8.701-7.805,12.434
			C121.842,209.613,124.437,205.613,123.74,199.071z"/>
		<path d="M240.238,66.333c0.85-3.241,1.7-6.481,2.55-9.722c0.345,0.088,0.689,0.175,1.034,0.263
			c-0.667,3.163-1.333,6.327-2.177,10.331c5.317-5.47,0.609-15.329,9.407-18.084c0.413-1.301,0.421-3.493,1.48-4.289
			c4.414-3.318,8.927-6.631,13.804-9.18c9.292-4.856,18.571-9.573,24.217-18.985c0.751-1.253,0.989-2.807,1.699-4.092
			c1.107-2.003,2.251-5.342,3.675-5.503c2.244-0.253,5.646,1.046,6.851,2.836c1.115,1.657,0.994,5.785-0.322,7.156
			c-5.942,6.19-12.161,12.229-18.951,17.452c-4.928,3.79-11.058,5.971-16.378,9.307c-8.492,5.325-18.14,9.761-18.746,22.048
			c-0.052,1.061-3.057,2.331-4.876,2.84c-1.549,0.434-4.029,0.724-3.171-2.505L240.238,66.333z"/>
		<path d="M223.317,71.002c-1.788-2.838-2.901-4.603-4.422-7.017c0,1.952,0,3.27,0,4.823c-4.104-2.377-4.744-5.44-3.371-9.16
			c0.648-1.756-0.442-4.153-0.592-5.195c-2.57-0.348-4.809-0.321-6.825-0.977c-16.578-5.393-29.657-15.185-37.966-30.789
			c-0.769-1.444-1.745-3.147-1.598-4.628c0.253-2.547,1.314-5.015,2.035-7.516c2.323,1.483,5.226,2.511,6.831,4.557
			c2.294,2.925,3.524,6.662,5.408,9.936c6.79,11.801,16.997,19.259,29.912,23.166C220.113,50.437,225.679,61.045,223.317,71.002z"/>
		<path d="M358.205,224.258c-1.869,0.594-3.322,1.055-4.776,1.517c-0.01,0.381-0.02,0.762-0.03,1.142
			c4.611,0.999,9.223,1.997,13.834,2.996c-0.031,0.35-0.061,0.7-0.092,1.05c-1.652,0.293-3.305,0.586-4.957,0.878
			c-0.083,0.348-0.166,0.697-0.249,1.045c4.054,1.067,8.109,2.134,12.899,3.394c-1.646,1.352-2.696,2.215-4.177,3.432
			c5.696,3.2,10.045,7.021,8.714,14.918c-2.282-2.502-4.171-4.573-6.247-6.85c-0.561,3.084-1.029,5.656-1.497,8.228
			c-0.331,0.015-0.662,0.031-0.993,0.046c-0.886-2.961-1.818-5.91-2.642-8.888c-0.539-1.948-0.62-4.121-3.779-3.021
			c-0.521,0.181-1.811-1.437-2.548-2.379c-1.211-1.548-2.261-3.224-3.669-5.268c-1.025,1.639-1.804,2.885-2.972,4.752
			c-4.763-7.816-9.19-15.145-13.701-22.42c-0.751-1.212-1.789-2.283-2.838-3.267c-6.61-6.196-6.103-11.653,1.748-16.489
			c2.938,4.442,4.991,9.021,4.498,14.624c-0.121,1.376,1.294,3.406,2.582,4.286C350.614,220.244,354.243,222.025,358.205,224.258z"
			/>
		<path d="M300.159,254.609c11.595,10.121,17.061,22.606,16.85,37.712c-0.066,4.717-3.216,6.417-6.997,6.989
			c-4.372,0.662-7.062-2.028-8.133-6.205c-1.924-7.504-3.837-15.066-6.578-22.291C292.042,262.224,292.005,261.086,300.159,254.609z
			 M311.245,294.073c1.475-10.869-2.231-19.148-7.052-27.327C306.477,275.592,308.71,284.246,311.245,294.073z"/>
		<path d="M316.548,299.086c0.856,2.871,1.682,5.395,2.359,7.959c1.855,7.024,2.533,14.619,5.7,20.979
			c6.194,12.436,0.202,20.672-9.22,26.495c-1.614,0.997-3.555,1.466-5.966,1.534c3.143-3.469,6.286-6.938,9.429-10.407
			c-4.702,0.033-9.404,3.216-13.148-2.259c4.855-0.653,9.579-1.289,14.304-1.925c-0.055-0.501-0.111-1.002-0.166-1.502
			c-1.193,0-2.385,0-4.039,0c1.137-3.824,2.141-7.201,3.184-10.706c-2.021-0.606-3.542-1.062-5.095-1.528c0-3.59,0-7.006,0-10.543
			c-1.578-0.454-2.966-0.853-4.304-1.238C308.802,307.506,311.039,301.245,316.548,299.086z"/>
		<path d="M331.794,83.798c-1.653-2.186-3.306-4.373-5.496-7.27c5.372-0.885,9.526-4.393,14.732-1.841
			c0.398,0.195,1.201-0.129,1.67-0.435c4.447-2.905,8.835-5.904,13.317-8.753c0.734-0.467,1.858-0.291,2.785-0.49
			c2.146-0.461,4.543-0.508,6.372-1.546c5.504-3.124,14.591-1.977,19.582,3.136c-1.402,0.799-2.717,1.547-4.354,2.48
			c0.353,1.238,0.721,2.527,1.507,5.28c-7.416-6.489-13.654-2.998-20.396-1.062c-6.188,1.777-10.797,7.682-17.933,6.572
			c-2.942,4.594-7.464,4.139-11.967,3.747L331.794,83.798z"/>
		<path d="M295.068,77.431c3.355,16.369-4.042,23.223-18.408,31.159c-1.705,0.942-1.721,0.773-3.741,3.454
			c-0.372,0.494-2.869,0.266-3.401-0.407c-1.513-1.914-2.518-4.23-3.966-6.821C275.252,95.817,285.015,86.758,295.068,77.431z
			 M273.87,105.499c6.837-1.068,15.48-9.059,17.076-15.74C285.425,94.848,279.544,100.269,273.87,105.499z"/>
		<path d="M299.133,224.949c0,9.484,0,18.968,0,29.059c-3.993-1.899-4.858-3.251-4.335-7.443c1.135-9.088,0.749-18.437,0.221-27.635
			c-0.303-5.28-2.101-10.474-3.227-15.707c0.473-0.25,0.946-0.5,1.418-0.75c1.424,1.841,3.495,3.475,4.165,5.558
			c3.518,10.949,6.86,21.965,9.835,33.072c0.681,2.543,0.159,5.71-0.753,8.252c-0.471,1.313-3.014,1.882-4.379,2.652
			c-0.514-9.638-0.982-18.43-1.451-27.221C300.129,224.839,299.631,224.894,299.133,224.949z"/>
		<path d="M331.613,83.616c0.354,0.731,0.709,1.462,1.176,2.426c-11.285,5.551-22.676,7.691-34.875,1.857
			c-0.855-2.423-0.269-4.255,2.792-5.326c6.197-2.169,12.281-4.659,18.477-6.829c3.326-1.165,5.465,0.275,7.268,3.342
			c1.145,1.948,3.525,3.17,5.347,4.715C331.794,83.798,331.613,83.616,331.613,83.616z M303.172,86.213
			c8.126,2.137,15.062,1.493,22.75-2.271C317.928,84.74,310.973,85.434,303.172,86.213z"/>
		<path d="M171.741,187.9c6.42-0.782,12.84-1.563,19.931-2.426c-0.609,1.445-0.665,2.043-0.98,2.256
			c-8.405,5.662-17.347,8.724-27.582,5.759c-4.069-1.179-5.898-3.915-6.375-8.952c13.076-0.725,25.65-5.017,38.74-3.421
			c0.12,0.742,0.24,1.484,0.361,2.227c-1.944,0.425-3.87,1.055-5.836,1.236c-6.14,0.566-12.296,0.963-18.445,1.426
			C171.616,186.636,171.679,187.268,171.741,187.9z"/>
		<path d="M260.49,183.119c10.759-1.264,20.736,1.062,30.007,6.559c1.423,0.844,3.493,1.545,3.973,2.805
			c0.714,1.873,0.708,4.317,0.116,6.245c-0.235,0.765-3.221,1.57-4.332,1.044c-10.254-4.858-20.371-10.005-30.528-15.067
			C259.98,184.176,260.235,183.648,260.49,183.119z M283.517,190.084c0.203-0.468,0.405-0.936,0.608-1.404
			c-4.875-1.369-9.749-2.738-14.624-4.108c-0.137,0.484-0.274,0.969-0.411,1.453C273.899,187.379,278.708,188.732,283.517,190.084z"
			/>
		<path d="M332.033,198.234c-0.67-3.863-1.26-7.259-1.848-10.649c6.707-1.679,7.363-1.081,10.392,8.976
			c-3.394,2.522-6.566,4.982-9.847,7.287c-2.925,2.055-4.12-0.456-4.462-2.423c-0.837-4.813-1.141-9.718-0.878-14.86
			C330.937,188.601,327.642,195.193,332.033,198.234z"/>
		<path d="M191.863,108.972c-5.633-4.843-11.099-9.263-16.15-14.116c-1.039-0.998-1.013-3.737-0.567-5.435
			c0.325-1.238,2.173-2.982,3.297-2.949c5.27,0.152,9.113,3.169,11.363,7.719c2.284,4.619,5.123,9.4,1.94,14.822
			C191.613,109.24,191.218,109.312,191.863,108.972z M177.432,89.34c4.803,5.61,8.651,10.104,13.23,15.452
			C188.071,97.678,184.566,92.832,177.432,89.34z"/>
		<path d="M194.285,170.79c-7.09-1.55-14.014-3.064-21.398-4.678c5.315-6.781,6.595-7.172,13.584-4.833
			c1.102,0.369,2.224,0.682,3.343,0.998C194.922,163.72,194.922,163.717,194.285,170.79z"/>
		<path d="M266.995,170.582c2.266-5.828,15.634-6.677,22.059-1.11C281.429,170.647,274.697,173.953,266.995,170.582z"/>
		<path d="M129.594,192.026c1.763-3.892,3.56-7.77,5.268-11.686c0.485-1.114,0.71-2.341,1.416-4.753
			c2.518,7.469-0.646,21.493-6.496,26.259c0-3.334,0-6.669-0.004-9.999C129.775,191.85,129.594,192.026,129.594,192.026z"/>
		<path d="M231.341,70.775c0.897-7.307,1.714-13.959,2.606-21.224C237.975,53.528,235.935,68.52,231.341,70.775z"/>
		<path d="M231.289,50.26c0.177,1.314,0.644,2.666,0.478,3.936c-0.594,4.555-1.302,9.103-2.218,13.603
			c-0.178,0.874-1.485,1.517-2.272,2.267c-0.42-0.897-1.272-1.837-1.187-2.684c0.456-4.55,1.03-9.098,1.822-13.601
			c0.236-1.343,1.303-2.539,1.99-3.803C230.364,50.072,230.827,50.166,231.289,50.26z"/>
		<path d="M231.096,337.567c2.384-2.559-1.108-7.943,4.946-7.528c-0.579,3.979-1.138,7.823-1.698,11.668
			c-0.656,0.217-1.311,0.434-1.967,0.651c-1.467-2.619-3.198-5.135-4.271-7.906c-0.431-1.115,0.582-2.789,0.938-4.208
			c0.47,0.094,0.939,0.189,1.409,0.283C230.649,332.67,230.845,334.812,231.096,337.567z"/>
		<path d="M189.103,118.243c-2.312-0.659-4.641-1.324-7.144-2.038c0.143-1.345,0.037-2.682,0.464-3.819
			c0.675-1.796-0.245-5.522,3.491-4.282c2.749,0.912,5.299,2.816,3.96,6.64C189.494,115.828,189.368,117.002,189.103,118.243z"/>
		<path d="M240.331,66.208c-1.076,1.337-2.152,2.674-3.228,4.01c-0.326-0.19-0.651-0.38-0.977-0.57
			c0.848-5.472,1.697-10.945,2.545-16.417c0.634,0.022,1.267,0.044,1.901,0.066c0,2.005,0.047,4.011-0.012,6.015
			c-0.07,2.354-0.234,4.705-0.339,7.039C240.238,66.333,240.331,66.208,240.331,66.208z"/>
		<path d="M181.128,281.357c4.063,4.995-0.514,8.244-1.956,13.11C175.937,288.794,179.479,285.366,181.128,281.357z"/>
		<path d="M200.443,324.52c-4.127-3.557-4.334-5.752-1.942-11.02C203.934,316.153,199.612,320.112,200.443,324.52z"/>
		<path d="M178.906,274.469c3.035,5.524-1.919,7.755-3.056,12.257C174.007,282.198,174.432,280.76,178.906,274.469z"/>
		<path d="M173.639,278.779c-3.63-4.928,1.871-7.462,2.177-12.195C180.304,272.574,174.562,275.045,173.639,278.779z"/>
		<path d="M184.36,288.799c4.189,4.64-1.113,7.226-1.107,11.02C179.775,297.214,179.852,296.644,184.36,288.799z"/>
		<path d="M170.71,250.531c-1.093-0.009-2.185-0.017-3.278-0.026c0.13-1.247-0.163-2.798,0.473-3.68
			c1.5-2.079,3.443-3.839,5.207-5.729c0.413,0.254,0.827,0.507,1.24,0.761c-1.278,2.961-2.556,5.922-3.835,8.882
			C170.517,250.739,170.71,250.531,170.71,250.531z"/>
		<path d="M281.98,206.533c-2.97-3.017-5.94-6.034-8.91-9.051c0.643-0.669,1.287-1.338,1.93-2.007
			c3.13,2.849,6.26,5.699,9.389,8.548C283.587,204.86,282.784,205.697,281.98,206.533z"/>
		<path d="M189.47,300.474c5.681,4.708,1.729,7.869,1.014,11.193c-0.595-0.039-1.19-0.077-1.785-0.116
			C188.929,308.244,189.159,304.937,189.47,300.474z"/>
		<path d="M184.057,305.963c0.83-3.394,1.659-6.788,2.489-10.182c3.981,4.186,0.366,7.074-0.314,10.434
			C185.506,306.131,184.782,306.047,184.057,305.963z"/>
		<path d="M271.157,311.815c-3.896-2.681-5.671-5.68-1.786-10.693C270.093,305.448,270.625,308.631,271.157,311.815z"/>
		<path d="M173.288,233.365c1.274,6.173-2.508,7.613-5.198,9.814c-0.556-0.408-1.112-0.816-1.667-1.224
			C168.51,239.344,170.597,236.732,173.288,233.365z"/>
		<path d="M170.71,250.531c0,0-0.193,0.208-0.192,0.208c0.87-0.746,1.74-1.493,2.61-2.239c0.406,0.191,0.813,0.382,1.219,0.573
			c-1.637,3.286-3.274,6.571-5.079,10.195C167.279,256.148,167.279,256.148,170.71,250.531z"/>
		<path d="M192.938,317.55c0.226-3.378,0.453-6.755,0.729-10.875C198.241,311.078,195.944,314.336,192.938,317.55z"/>
		<path d="M275.268,305.012c-5.234-2.754-5.697-5.249-2.334-9.588C273.797,298.969,274.533,301.991,275.268,305.012z"/>
		<path d="M168.203,264.922c1.677-3.254,3.354-6.509,5.031-9.763c0.584,0.238,1.169,0.475,1.753,0.713
			c-1.481,3.337-2.963,6.673-4.444,10.01C169.763,265.562,168.983,265.242,168.203,264.922z"/>
		<path d="M279.815,292.376c-2.525-2.515-5.257-4.959-2.428-10.448c1.61,3.874,2.827,6.801,4.043,9.728
			C280.892,291.896,280.354,292.136,279.815,292.376z"/>
		<path d="M275.847,289.621c0.92,3.127,1.84,6.253,2.76,9.38c-0.687,0.207-1.374,0.414-2.061,0.621
			c-1.097-3.06-2.194-6.121-3.292-9.181C274.118,290.167,274.983,289.894,275.847,289.621z"/>
		<path d="M176.433,213.846c0.821,5.051-3.151,5.784-6.114,7.323C170.144,217.123,173.835,216.165,176.433,213.846z"/>
		<path d="M284.837,272.792c-1.439-2.791-2.878-5.583-4.317-8.374c0.673-0.339,1.346-0.679,2.019-1.018
			c1.453,2.789,2.905,5.577,4.358,8.365C286.21,272.108,285.523,272.45,284.837,272.792z"/>
		<path d="M224.011,337.788c-0.67-2.408-1.34-4.816-2.042-7.337c4.335-0.358,4.849,0.831,3.404,6.892
			C224.919,337.491,224.465,337.639,224.011,337.788z"/>
		<path d="M265.697,307.636c0.371,3.737,0.673,6.771,0.974,9.806c-0.537,0.027-1.074,0.053-1.611,0.08
			C263.542,314.466,261.09,311.41,265.697,307.636z"/>
		<path d="M169.649,271.231c1.566-3.156,3.132-6.312,4.699-9.468c0.559,0.249,1.118,0.499,1.677,0.748
			c-1.495,3.194-2.99,6.388-4.486,9.582C170.909,271.806,170.279,271.519,169.649,271.231z"/>
		<path d="M256.292,327.208c-0.705-1.363-1.903-2.707-1.959-4.097c-0.046-1.136,1.27-2.327,1.982-3.493
			c0.392,0.147,0.784,0.294,1.176,0.44c0.098,2.234,0.196,4.469,0.293,6.704C257.287,326.91,256.79,327.059,256.292,327.208z"/>
		<path d="M242.442,329.355c-0.651,2.585-1.255,4.985-2.188,8.692C237.433,331.615,238.118,329.396,242.442,329.355z"/>
		<path d="M279.211,276.067c1.486,3.521,2.739,6.49,3.992,9.459c-0.415,0.165-0.831,0.329-1.246,0.494
			C279.445,283.555,276.414,281.291,279.211,276.067z"/>
		<path d="M173.459,205.337c2.513-1.562,5.027-3.123,7.54-4.685c0.369,0.541,0.739,1.081,1.108,1.622
			c-2.42,1.669-4.841,3.339-7.261,5.008C174.384,206.634,173.922,205.985,173.459,205.337z"/>
		<path d="M285.22,278.59c-3.628-1.718-6.393-3.803-3.553-8.261C282.852,273.083,284.036,275.837,285.22,278.59z"/>
		<path d="M284.787,249.158c1.161,2.622,2.322,5.244,3.482,7.866c-0.583,0.271-1.165,0.542-1.748,0.812
			c-1.339-2.543-2.679-5.086-4.018-7.628C283.265,249.858,284.026,249.508,284.787,249.158z"/>
		<path d="M207.539,330.673c-0.415-2.622-0.83-5.244-1.328-8.39c4.109,2.202,4.109,2.202,2.945,8.119
			C208.617,330.492,208.078,330.582,207.539,330.673z"/>
		<path d="M213.562,333.786c-0.666-2.453-1.332-4.906-1.997-7.358c0.673-0.211,1.347-0.423,2.02-0.634
			c0.731,2.435,1.462,4.871,2.194,7.307C215.04,333.328,214.301,333.557,213.562,333.786z"/>
		<path d="M218.92,327.909c0.669,2.289,1.337,4.578,2.048,7.011c-4.164-0.143-4.164-0.143-3.542-6.465
			C217.924,328.272,218.422,328.09,218.92,327.909z"/>
		<path d="M254.934,248.019c-0.843,3.38,2.141,8.317-4.53,7.805C249.359,249.313,249.988,248.079,254.934,248.019z"/>
		<path d="M236.197,256.264c-0.145-6.276,0.163-6.837,4.082-7.428C241.847,255.865,241.377,256.722,236.197,256.264z"/>
		<path d="M273.616,245.52c0.354,3.494,0.635,6.792-3.188,8.919C268.578,249.881,269.709,246.811,273.616,245.52z"/>
		<path d="M259.917,254.235c1.421-2.779,2.594-5.073,3.767-7.367c0.664,1.318,1.714,2.582,1.911,3.967
			C266.023,253.842,264.821,255.572,259.917,254.235z"/>
		<path d="M269.637,205.539c-7.382,3.33-5.26-3.859-8.783-6.148C267.739,197.277,267.377,202.736,269.637,205.539z"/>
		<path d="M250.542,207.054c-6.958,2.176-3.764-3.139-5.289-4.694c0.851-0.776,1.701-1.552,2.552-2.328
			C248.716,202.369,249.627,204.705,250.542,207.054z"/>
		<path d="M235.969,201.373c3.39-1.362,3.914,0.22,4.038,2.895c0.105,2.249,1.575,4.9-2.702,4.559
			C236.884,206.474,236.457,204.092,235.969,201.373z"/>
		<path d="M259.107,206.323c-1.625,0.325-2.855,0.57-4.559,0.91c-0.259-2.559-0.482-4.769-0.734-7.26
			C259.104,199.408,257.722,203.667,259.107,206.323z"/>
		<path d="M250.467,278.898c0.774,3.865,0.321,6.379-4.537,5.375C245.581,281.072,245.176,277.986,250.467,278.898z"/>
		<path d="M254.33,282.607c1.175-1.63,2.351-3.26,3.526-4.89c0.622,0.963,1.98,2.267,1.723,2.821
			c-0.667,1.436-2.046,2.542-3.14,3.779C255.736,283.747,255.033,283.177,254.33,282.607z"/>
		<path d="M263.15,281.822c1.07-2.087,2.139-4.174,3.209-6.261c0.708,0.354,1.416,0.708,2.124,1.062
			c-0.99,2.201-1.98,4.402-2.97,6.603C264.725,282.758,263.937,282.29,263.15,281.822z"/>
	</g>
</g>
</svg>
